<?xml version="1.0" encoding="UTF-8"?>
<svg xmlns="http://www.w3.org/2000/svg" xmlns:xlink="http://www.w3.org/1999/xlink" width="30px" height="30px" viewBox="0 0 30 30" version="1.1">
<g id="surface1">
    <path style=" stroke:none;fill-rule:nonzero;fill:#fff;fill-opacity:1;" d="M 15 0 C 6.714844 0 0 6.714844 0 15 C 0 23.285156 6.714844 30 15 30 C 23.285156 30 30 23.285156 30 15 C 30 6.714844 23.285156 0 15 0 Z M 15 23.296875 C 13.921875 23.296875 13.050781 22.421875 13.050781 21.34375 L 16.949219 21.34375 C 16.949219 22.421875 16.078125 23.296875 15 23.296875 Z M 21.589844 19.390625 C 21.589844 20.109375 21.003906 20.160156 20.285156 20.160156 L 9.714844 20.160156 C 8.996094 20.160156 8.410156 20.109375 8.410156 19.390625 L 8.410156 19.265625 C 8.410156 18.746094 8.714844 18.304688 9.152344 18.09375 L 9.566406 14.515625 C 9.566406 11.898438 11.417969 9.714844 13.882812 9.199219 L 13.882812 7.8125 C 13.882812 7.195312 14.382812 6.695312 15 6.695312 C 15.617188 6.695312 16.117188 7.195312 16.117188 7.8125 L 16.117188 9.199219 C 18.582031 9.714844 20.433594 11.898438 20.433594 14.515625 L 20.847656 18.09375 C 21.285156 18.304688 21.589844 18.746094 21.589844 19.265625 Z M 21.589844 19.390625 "/>
    <circle style="opacity:0" class='box' cx="5" cy="5" r="5" stroke-width="4" fill="#9146FF" />
</g>
</svg>
